<?xml version="1.0" encoding="utf-8"?>
<!-- Generator: Adobe Illustrator 23.0.6, SVG Export Plug-In . SVG Version: 6.00 Build 0)  -->
<svg version="1.1" id="Ebene_1" xmlns="http://www.w3.org/2000/svg" xmlns:xlink="http://www.w3.org/1999/xlink" x="0px" y="0px"
	 viewBox="0 0 299.8 60" style="enable-background:new 0 0 299.8 60;" xml:space="preserve">
<style type="text/css">
	.st0{clip-path:url(#SVGID_2_);fill:#FFFFFF;}
	.st1{fill:#FFFFFF;}
	.st2{clip-path:url(#SVGID_4_);fill:#FFFFFF;}
	.st3{clip-path:url(#SVGID_6_);fill:#FFFFFF;}
	.st4{clip-path:url(#SVGID_8_);fill:#FFFFFF;}
	.st5{clip-path:url(#SVGID_10_);fill:#FFFFFF;}
	.st6{clip-path:url(#SVGID_12_);fill:#FFFFFF;}
	.st7{clip-path:url(#SVGID_14_);fill:#FFFFFF;}
	.st8{clip-path:url(#SVGID_16_);fill:#FFFFFF;}
	.st9{clip-path:url(#SVGID_18_);fill:#FFFFFF;}
	.st10{clip-path:url(#SVGID_20_);fill:#FFFFFF;}
	.st11{clip-path:url(#SVGID_22_);fill:#FFFFFF;}
	.st12{clip-path:url(#SVGID_24_);fill:#FFFFFF;}
	.st13{clip-path:url(#SVGID_26_);fill:#FFFFFF;}
</style>
<g>
	<defs>
		<rect id="SVGID_1_" width="299.8" height="60"/>
	</defs>
	<clipPath id="SVGID_2_">
		<use xlink:href="#SVGID_1_"  style="overflow:visible;"/>
	</clipPath>
	<path class="st0" d="M255.9,13.6c-0.7-0.1-1-0.7-0.8-1.4c0.8-1.7,3-0.2,1.8,1.2C256.5,13.6,256.3,13.7,255.9,13.6 M222.1,19.9
		c0.1-2.9,1.7-5.6,3.1-8.1c1-1.5,2.1-3,3.2-4.3c-0.8,0.1-1.3,0.3-2.2,0.4c-0.4,0.1-0.4-0.4-0.2-0.6c1-0.3,2.1-0.5,3.2-0.8
		c1.8-2.1,3-3.3,4.5-4.8c0.6-0.6,1.7-1.7,2.8-1.9c0.7,0,2.2,0.3,1.6,1.3c-1.1,1.3-2.1,2.4-3.5,4.2c1.4-0.2,2.7-0.4,4.1-0.6
		c0.6,0.1,0.8,0.4,0.2,0.7c-0.4,0.1-0.4,0.1-5.1,0.9c-0.1,0.1-0.1,0.1-0.2,0.2c-0.9,1.3-1.9,2.5-2.8,3.8c-1.9,3.1-3.6,6-4.3,9.6
		c0,0.3-0.1,0.9,0.1,1.1c0.3,0,0.7-0.2,0.9-0.3c3.6-1.9,6.6-4.4,10.1-6.5c1.6-3.8,3.4-7.7,5.5-11.3c0.5-0.5,0.9-0.2,0.7,0.1
		c-1.1,2-4.1,7.7-5,10.4c2.2-1.5,5.4-3.5,7.8-4.5c0.9-0.4,2.1-0.1,2.6,0.9c0.2,0.4,0.2,1.3,0,1.8c-0.9,2.4-2,4.3-3,6.6
		c-0.4,1-1.1,2.4-1,3.2c0.1,0.6,4.3-2.4,4.9-2.9c0.2-0.2,1.9-1.5,2.2-1.7c0.6-0.4,1.1-0.7,1.6-0.7c1.1,0.1,2.2,0.8,1.6,1.5
		c-2.9,3.1-6,6.3-9.8,7.3c-1.7,0.4-4.1-0.8-4.2-3c-0.1-1.8,0.5-3.5,1.2-5.2c0.3-0.7,1.2-2.5,1.6-3.3c-2.6,1.7-4.9,3.4-7.4,5.3
		c-0.8,2.2-1.2,3.3-1.8,5.6c-0.2,0.8-1.2,0.6-1-0.1c0.3-1.1,1.2-3.4,1.6-4.6c-2.1,1.6-4.3,3.5-6.7,4.6c-1.3,0.6-2.7,0.8-3.7,0.5
		C222.8,24,222.1,22.4,222.1,19.9"/>
</g>
<polygon class="st1" points="121.2,32.1 128.6,32.1 128.6,33.3 125.6,33.3 125.6,42.6 124.1,42.6 124.1,33.3 121.2,33.3 "/>
<polygon class="st1" points="130.2,32.1 135.9,32.1 135.9,33.2 131.6,33.2 131.6,36.6 135.6,36.6 135.6,37.7 131.6,37.7 131.6,41.4 
	136,41.4 136,42.6 130.2,42.6 "/>
<g>
	<defs>
		<rect id="SVGID_3_" width="299.8" height="60"/>
	</defs>
	<clipPath id="SVGID_4_">
		<use xlink:href="#SVGID_3_"  style="overflow:visible;"/>
	</clipPath>
	<path class="st2" d="M145.7,32.4l-0.1,1.3c-0.4-0.2-0.8-0.3-1.2-0.4c-0.4-0.1-0.8-0.1-1.2-0.1c-1.3,0-2.3,0.4-3,1.1
		c-0.7,0.7-1.1,1.7-1.1,3c0,1.3,0.4,2.3,1.1,3c0.7,0.7,1.8,1.1,3,1.1c0.4,0,0.8,0,1.2-0.1c0.4-0.1,0.8-0.2,1.1-0.3l0,1.3
		c-0.4,0.1-0.8,0.2-1.2,0.3s-0.9,0.1-1.3,0.1c-1.7,0-3.1-0.5-4.1-1.4c-1-0.9-1.5-2.2-1.5-3.8c0-1.6,0.5-2.9,1.5-3.9
		c1-1,2.4-1.5,4.1-1.5c0.5,0,0.9,0,1.3,0.1C145,32.2,145.3,32.3,145.7,32.4"/>
</g>
<polygon class="st1" points="147.4,32.1 148.9,32.1 148.9,36.5 153.7,36.5 153.7,32.1 155.2,32.1 155.2,42.6 153.7,42.6 153.7,37.7 
	148.9,37.7 148.9,42.6 147.4,42.6 "/>
<g>
	<defs>
		<rect id="SVGID_5_" width="299.8" height="60"/>
	</defs>
	<clipPath id="SVGID_6_">
		<use xlink:href="#SVGID_5_"  style="overflow:visible;"/>
	</clipPath>
	<path class="st3" d="M157.8,32.1h1.9l4.6,8.2c0.1,0.1,0.1,0.3,0.2,0.5c0.1,0.2,0.2,0.5,0.3,0.9c-0.1-0.4-0.1-0.7-0.1-1
		c0-0.3-0.1-0.6-0.1-0.8v-7.8h1.4v10.6h-1.8l-4.7-8.3c-0.1-0.1-0.1-0.3-0.2-0.5c-0.1-0.2-0.2-0.5-0.3-0.9c0.1,0.6,0.1,1,0.2,1.3
		c0,0.3,0,0.5,0,0.7v7.7h-1.4V32.1z"/>
</g>
<rect x="168.6" y="32.1" class="st1" width="1.5" height="10.6"/>
<g>
	<defs>
		<rect id="SVGID_7_" width="299.8" height="60"/>
	</defs>
	<clipPath id="SVGID_8_">
		<use xlink:href="#SVGID_7_"  style="overflow:visible;"/>
	</clipPath>
	<path class="st4" d="M178.1,32.3l-0.1,1.3c-0.3-0.2-0.7-0.3-1-0.4c-0.3-0.1-0.7-0.1-1.1-0.1c-0.6,0-1.1,0.1-1.5,0.4
		c-0.4,0.2-0.5,0.6-0.5,1c0,0.3,0.1,0.6,0.4,0.9c0.2,0.3,0.8,0.6,1.6,1.1c1,0.6,1.8,1.1,2.2,1.6c0.4,0.5,0.6,1,0.6,1.6
		c0,0.9-0.3,1.6-1,2.2c-0.7,0.6-1.5,0.9-2.5,0.9c-0.5,0-1,0-1.4-0.1c-0.5-0.1-0.9-0.2-1.3-0.4l0.1-1.4c0.4,0.2,0.9,0.4,1.3,0.5
		c0.4,0.1,0.8,0.2,1.2,0.2c0.6,0,1.1-0.1,1.5-0.4c0.4-0.3,0.6-0.6,0.6-1.1c0-0.7-0.7-1.5-2.2-2.3c-0.2-0.1-0.4-0.2-0.6-0.3
		c-0.6-0.3-1-0.7-1.3-1.2c-0.3-0.5-0.5-1-0.5-1.4c0-0.8,0.3-1.5,0.9-2c0.6-0.5,1.5-0.7,2.6-0.7c0.4,0,0.8,0,1.2,0.1
		C177.3,32.1,177.7,32.2,178.1,32.3"/>
	<path class="st4" d="M188.2,32.4l-0.1,1.3c-0.4-0.2-0.8-0.3-1.2-0.4c-0.4-0.1-0.8-0.1-1.2-0.1c-1.3,0-2.3,0.4-3,1.1
		c-0.7,0.7-1.1,1.7-1.1,3c0,1.3,0.4,2.3,1.1,3c0.7,0.7,1.8,1.1,3,1.1c0.4,0,0.8,0,1.2-0.1c0.4-0.1,0.8-0.2,1.1-0.3l0,1.3
		c-0.4,0.1-0.8,0.2-1.2,0.3c-0.4,0.1-0.9,0.1-1.3,0.1c-1.7,0-3.1-0.5-4.1-1.4c-1-0.9-1.5-2.2-1.5-3.8c0-1.6,0.5-2.9,1.5-3.9
		c1-1,2.4-1.5,4.1-1.5c0.5,0,0.9,0,1.3,0.1C187.4,32.2,187.8,32.3,188.2,32.4"/>
</g>
<polygon class="st1" points="189.9,32.1 191.3,32.1 191.3,36.5 196.1,36.5 196.1,32.1 197.6,32.1 197.6,42.6 196.1,42.6 196.1,37.7 
	191.3,37.7 191.3,42.6 189.9,42.6 "/>
<polygon class="st1" points="200.3,32.1 206,32.1 206,33.2 201.7,33.2 201.7,36.6 205.7,36.6 205.7,37.7 201.7,37.7 201.7,41.4 
	206.1,41.4 206.1,42.6 200.3,42.6 "/>
<g>
	<defs>
		<rect id="SVGID_9_" width="299.8" height="60"/>
	</defs>
	<clipPath id="SVGID_10_">
		<use xlink:href="#SVGID_9_"  style="overflow:visible;"/>
	</clipPath>
	<path class="st5" d="M212.8,32.1h1.5v6.2c0,1.1,0.2,2,0.6,2.5c0.4,0.5,1,0.8,1.9,0.8c0.9,0,1.5-0.3,1.9-0.9
		c0.4-0.6,0.6-1.4,0.6-2.6v-6.1h1.4v6.1c0,1.5-0.3,2.7-1,3.5c-0.7,0.8-1.7,1.2-3,1.2c-1.3,0-2.3-0.4-2.9-1.1c-0.7-0.8-1-1.9-1-3.4
		V32.1z"/>
	<path class="st5" d="M223.4,32.1h1.9l4.6,8.2c0.1,0.1,0.1,0.3,0.2,0.5c0.1,0.2,0.2,0.5,0.3,0.9c-0.1-0.4-0.1-0.7-0.1-1
		c0-0.3-0.1-0.6-0.1-0.8v-7.8h1.4v10.6h-1.8l-4.7-8.3c-0.1-0.1-0.1-0.3-0.2-0.5c-0.1-0.2-0.2-0.5-0.3-0.9c0.1,0.6,0.1,1,0.2,1.3
		c0,0.3,0,0.5,0,0.7v7.7h-1.4V32.1z"/>
</g>
<rect x="234.2" y="32.1" class="st1" width="1.5" height="10.6"/>
<polygon class="st1" points="237.3,32.1 238.8,32.1 241.9,41.2 245.1,32.1 246.6,32.1 242.7,42.6 241,42.6 "/>
<polygon class="st1" points="248.2,32.1 253.9,32.1 253.9,33.2 249.6,33.2 249.6,36.6 253.6,36.6 253.6,37.7 249.6,37.7 249.6,41.4 
	254,41.4 254,42.6 248.2,42.6 "/>
<g>
	<defs>
		<rect id="SVGID_11_" width="299.8" height="60"/>
	</defs>
	<clipPath id="SVGID_12_">
		<use xlink:href="#SVGID_11_"  style="overflow:visible;"/>
	</clipPath>
	<path class="st6" d="M257.6,33.2v3.6h1.1c0.7,0,1.3-0.2,1.7-0.5c0.4-0.3,0.6-0.8,0.6-1.3c0-0.6-0.2-1.1-0.6-1.3
		c-0.4-0.3-1-0.4-1.8-0.4H257.6z M256.1,32.1h2.8c1.2,0,2.1,0.2,2.7,0.7c0.6,0.5,0.9,1.1,0.9,2c0,0.7-0.2,1.2-0.6,1.7
		c-0.4,0.4-1,0.7-1.7,0.9c0.3,0.1,0.6,0.2,0.8,0.4c0.2,0.2,0.4,0.6,0.6,1.1l1.6,3.8h-1.6l-1.4-3.5c-0.2-0.4-0.4-0.8-0.7-0.9
		c-0.3-0.2-0.7-0.3-1.2-0.3h-0.8v4.7h-1.5V32.1z"/>
	<path class="st6" d="M270.5,32.3l-0.1,1.3c-0.3-0.2-0.7-0.3-1-0.4c-0.3-0.1-0.7-0.1-1.1-0.1c-0.6,0-1.1,0.1-1.5,0.4
		c-0.4,0.2-0.5,0.6-0.5,1c0,0.3,0.1,0.6,0.4,0.9c0.2,0.3,0.8,0.6,1.6,1.1c1,0.6,1.8,1.1,2.2,1.6s0.6,1,0.6,1.6c0,0.9-0.3,1.6-1,2.2
		c-0.7,0.6-1.5,0.9-2.5,0.9c-0.5,0-1,0-1.4-0.1c-0.5-0.1-0.9-0.2-1.3-0.4l0.1-1.4c0.4,0.2,0.9,0.4,1.3,0.5c0.4,0.1,0.8,0.2,1.2,0.2
		c0.6,0,1.1-0.1,1.5-0.4c0.4-0.3,0.6-0.6,0.6-1.1c0-0.7-0.7-1.5-2.2-2.3c-0.2-0.1-0.4-0.2-0.6-0.3c-0.6-0.3-1-0.7-1.3-1.2
		c-0.3-0.5-0.5-1-0.5-1.4c0-0.8,0.3-1.5,0.9-2c0.6-0.5,1.5-0.7,2.6-0.7c0.4,0,0.8,0,1.2,0.1C269.8,32.1,270.1,32.2,270.5,32.3"/>
</g>
<rect x="272.9" y="32.1" class="st1" width="1.5" height="10.6"/>
<polygon class="st1" points="276,32.1 283.4,32.1 283.4,33.3 280.4,33.3 280.4,42.6 278.9,42.6 278.9,33.3 276,33.3 "/>
<path class="st1" d="M288.6,29.1h1.3v1.4h-1.3V29.1z M286.2,29.1h1.3v1.4h-1.3V29.1z M287.9,33.4l-2.1,5.4h4.1L287.9,33.4z
	 M287.1,32.1h1.8l4.1,10.6h-1.6l-1-2.7h-5l-1,2.7h-1.5L287.1,32.1z"/>
<polygon class="st1" points="292.4,32.1 292.4,33.3 295.3,33.3 295.3,42.6 296.8,42.6 296.8,33.3 299.8,33.3 299.8,32.1 "/>
<rect x="229.6" y="49.2" class="st1" width="2.8" height="10.6"/>
<polygon class="st1" points="234.7,49.2 234.7,59.8 241.8,59.8 241.8,57.7 237.5,57.7 237.5,49.2 "/>
<g>
	<defs>
		<rect id="SVGID_13_" width="299.8" height="60"/>
	</defs>
	<clipPath id="SVGID_14_">
		<use xlink:href="#SVGID_13_"  style="overflow:visible;"/>
	</clipPath>
	<path class="st7" d="M243.2,49.2h4.3l1.9,6.3c0.1,0.3,0.1,0.5,0.2,0.9c0,0.3,0.1,0.7,0.1,1c0-0.4,0.1-0.8,0.1-1.1
		c0.1-0.3,0.1-0.6,0.2-0.8l1.9-6.3h4.2v10.6h-2.6v-7.1c0-0.3,0-0.7,0-1c0-0.4,0-0.7,0.1-1.2c-0.1,0.3-0.1,0.6-0.2,0.9
		c-0.1,0.3-0.2,0.6-0.2,0.8l-2.4,7.6h-2.5l-2.3-7.4c-0.1-0.3-0.2-0.5-0.2-0.9c-0.1-0.3-0.1-0.6-0.2-1c0,0.5,0.1,1,0.1,1.3
		s0,0.7,0,0.9v7h-2.5V49.2z"/>
</g>
<polygon class="st1" points="258.5,49.2 258.5,59.8 266,59.8 266,57.7 261.3,57.7 261.3,55.3 265.5,55.3 265.5,53.3 261.3,53.3 
	261.3,51.2 265.8,51.2 265.8,49.2 "/>
<g>
	<defs>
		<rect id="SVGID_15_" width="299.8" height="60"/>
	</defs>
	<clipPath id="SVGID_16_">
		<use xlink:href="#SVGID_15_"  style="overflow:visible;"/>
	</clipPath>
	<path class="st8" d="M267.9,49.2h3.5l3.1,6.3c0.1,0.2,0.2,0.5,0.4,0.9c0.1,0.4,0.3,0.8,0.5,1.4c-0.1-0.5-0.2-1-0.2-1.4
		c0-0.4-0.1-0.8-0.1-1.2v-6h2.5v10.6h-3.5l-3.2-6.6c-0.1-0.3-0.3-0.6-0.4-1c-0.1-0.4-0.2-0.7-0.3-1.2c0.1,0.6,0.2,1.2,0.2,1.7
		c0,0.5,0.1,1,0.1,1.4v5.6h-2.5V49.2z"/>
</g>
<path class="st1" d="M284.4,51.5l1.3,4H283L284.4,51.5z M282.8,49.2l-4,10.6h2.8l0.8-2.2h4.1l0.8,2.2h3l-4-10.6H282.8z"/>
<g>
	<defs>
		<rect id="SVGID_17_" width="299.8" height="60"/>
	</defs>
	<clipPath id="SVGID_18_">
		<use xlink:href="#SVGID_17_"  style="overflow:visible;"/>
	</clipPath>
	<path class="st9" d="M290.7,49.2h2.8v6.2c0,0.9,0.1,1.6,0.4,2c0.3,0.4,0.7,0.6,1.3,0.6c0.6,0,1.1-0.2,1.4-0.6
		c0.3-0.4,0.5-1.1,0.5-1.9v-6.2h2.7v6.2c0,1.6-0.4,2.7-1.1,3.5c-0.8,0.8-1.9,1.2-3.4,1.2c-1.5,0-2.6-0.4-3.4-1.2
		c-0.8-0.8-1.1-1.9-1.1-3.5V49.2z"/>
</g>
<polygon class="st1" points="0,33.3 0,34.2 3.8,34.2 3.8,44 4.8,44 4.8,34.2 7.8,34.2 7.8,33.3 "/>
<g>
	<defs>
		<rect id="SVGID_19_" width="299.8" height="60"/>
	</defs>
	<clipPath id="SVGID_20_">
		<use xlink:href="#SVGID_19_"  style="overflow:visible;"/>
	</clipPath>
	<path class="st10" d="M9.4,32.5h0.9v5h0c0.2-0.4,0.5-0.8,0.9-1.1c0.4-0.3,0.9-0.4,1.4-0.4c1,0,1.7,0.3,2,0.9
		c0.4,0.6,0.5,1.4,0.5,2.4V44h-0.9v-4.7c0-0.3,0-0.7-0.1-1c0-0.3-0.1-0.6-0.3-0.8c-0.2-0.5-0.7-0.7-1.5-0.8c-0.8,0-1.4,0.3-1.7,1
		c-0.3,0.6-0.5,1.3-0.5,2V44H9.4V32.5z"/>
	<path class="st10" d="M22.2,39.5c0-0.7-0.1-1.3-0.4-1.9c-0.3-0.5-0.8-0.8-1.5-0.8c-0.7,0-1.2,0.3-1.6,0.9c-0.4,0.6-0.6,1.2-0.6,1.9
		H22.2z M22.6,43.7c-0.7,0.3-1.4,0.4-2.2,0.4c-1.2,0-2.1-0.4-2.6-1.2c-0.5-0.7-0.8-1.7-0.8-2.9c0-1.2,0.3-2.2,0.9-3
		c0.6-0.7,1.3-1.1,2.3-1.1c1,0,1.8,0.4,2.3,1.2c0.5,0.7,0.7,1.6,0.7,2.7v0.5h-5.1c0,0.9,0.2,1.6,0.6,2.1c0.4,0.6,1,0.9,1.8,0.9
		c0.4,0,0.7-0.1,1.1-0.2c0.4-0.1,0.7-0.2,0.9-0.4V43.7z"/>
	<path class="st10" d="M28.9,41.1c1,0.6,2.3,0.9,3.9,0.9c0.6,0,1.2-0.1,1.6-0.3c0.5-0.2,0.7-0.6,0.7-1.1c0-0.3-0.1-0.6-0.3-0.8
		c-0.2-0.2-0.4-0.4-0.8-0.5c-0.3-0.1-0.7-0.3-1-0.4c-0.4-0.1-0.8-0.3-1.2-0.4c-0.4-0.1-0.8-0.3-1.2-0.5c-0.4-0.2-0.8-0.4-1.1-0.7
		c-0.7-0.6-1.1-1.5-1.1-2.8c0-0.9,0.2-1.6,0.6-2.1c0.4-0.6,0.8-1,1.4-1.3c0.6-0.3,1.2-0.6,2-0.7c0.7-0.1,1.4-0.2,2.1-0.2
		c1.4,0,2.6,0.2,3.6,0.5l-0.2,2.9c-1-0.4-2-0.7-3.1-0.7c-0.2,0-0.5,0-0.8,0c-0.3,0-0.6,0.1-0.8,0.2c-0.6,0.2-0.9,0.5-0.9,1.1
		c0,0.3,0.1,0.5,0.3,0.7c0.2,0.2,0.4,0.3,0.8,0.4c0.3,0.1,0.7,0.2,1.1,0.3c0.4,0.1,0.8,0.3,1.2,0.4c0.4,0.1,0.8,0.3,1.2,0.5
		c0.4,0.2,0.7,0.5,1.1,0.8c0.3,0.3,0.6,0.7,0.8,1.1c0.2,0.4,0.3,1,0.3,1.7c0,1.8-0.7,3-1.9,3.7c-1.2,0.7-2.6,1-4.2,1
		c-1.4,0-2.8-0.2-4.1-0.6L28.9,41.1z"/>
	<path class="st10" d="M44.7,36.9h1c0.7,0,1.3-0.1,1.7-0.4c0.4-0.3,0.7-0.8,0.7-1.5c0-0.7-0.2-1.2-0.7-1.5c-0.5-0.3-1-0.4-1.7-0.4
		h-1V36.9z M41.1,30.4h4.4c4.2,0,6.2,1.5,6.2,4.7c-0.1,3-1.9,4.6-5.6,4.6h-1.4v5h-3.6V30.4z"/>
</g>
<rect x="53.9" y="30.4" class="st1" width="3.6" height="14.3"/>
<g>
	<defs>
		<rect id="SVGID_21_" width="299.8" height="60"/>
	</defs>
	<clipPath id="SVGID_22_">
		<use xlink:href="#SVGID_21_"  style="overflow:visible;"/>
	</clipPath>
	<path class="st11" d="M64.1,36.3h1c0.2,0,0.3,0,0.5,0c0.2,0,0.3,0,0.5,0c0.3,0,0.6-0.1,0.9-0.2c0.3-0.1,0.5-0.3,0.7-0.5
		c0.2-0.2,0.3-0.5,0.3-0.9c0-0.7-0.3-1.1-0.9-1.3c-0.5-0.2-1.2-0.3-2-0.3h-1V36.3z M60.5,30.4H67c1.2,0,2.3,0.3,3.1,0.9
		c0.8,0.6,1.3,1.5,1.3,2.7c0,1.9-0.9,3.1-2.6,3.6v0.1c0.3,0.1,0.5,0.2,0.7,0.4c0.2,0.2,0.3,0.4,0.4,0.7c0.1,0.3,0.3,0.6,0.4,0.9
		c0.1,0.4,0.3,0.8,0.4,1.2l1.3,3.9h-3.8L67.4,42c-0.3-1.2-0.7-2-1-2.5C66,39.2,65.5,39,64.9,39h-0.8v5.6h-3.6V30.4z"/>
</g>
<rect x="74.4" y="30.4" class="st1" width="3.6" height="14.3"/>
<polygon class="st1" points="83.3,33.2 80,33.2 80,30.4 91,30.4 91,33.2 86.9,33.2 86.9,44.6 83.3,44.6 "/>
<g>
	<defs>
		<rect id="SVGID_23_" width="299.8" height="60"/>
	</defs>
	<clipPath id="SVGID_24_">
		<use xlink:href="#SVGID_23_"  style="overflow:visible;"/>
	</clipPath>
	<path class="st12" d="M28.6,55.9c0,0.9,0.2,1.7,0.6,2.3c0.4,0.6,1,1,1.8,1c0.8,0,1.4-0.3,1.9-1c0.4-0.6,0.6-1.4,0.6-2.3
		c0-0.9-0.2-1.7-0.6-2.3c-0.4-0.6-1-0.9-1.9-0.9c-0.8,0-1.4,0.3-1.8,0.9C28.8,54.2,28.6,55,28.6,55.9 M27.6,55.9
		c0-1.1,0.3-2.1,0.8-2.9c0.6-0.8,1.4-1.2,2.6-1.2c1.2,0,2.1,0.4,2.7,1.2c0.5,0.8,0.8,1.7,0.8,2.9c0,1.1-0.3,2-0.8,2.8
		C33.1,59.6,32.3,60,31,60c-1.2,0-2.1-0.4-2.6-1.3C27.9,57.9,27.6,57,27.6,55.9"/>
	<path class="st12" d="M36.9,52.8h-1.5V52h1.5v-0.6c0-0.4,0-0.8,0.1-1.2c0-0.4,0.1-0.7,0.2-1c0.1-0.3,0.3-0.6,0.6-0.8
		c0.3-0.2,0.6-0.3,1.1-0.3c0.2,0,0.3,0,0.5,0c0.2,0,0.3,0.1,0.4,0.1l-0.1,0.8C39.5,49,39.2,49,38.9,49c-0.3,0-0.5,0.1-0.7,0.2
		c-0.2,0.2-0.3,0.4-0.3,0.6c-0.1,0.2-0.1,0.5-0.1,0.7c0,0.3,0,0.5,0,0.8V52h1.7v0.8h-1.7v7h-0.9V52.8z"/>
	<path class="st12" d="M45.1,58.7c0.6,0.3,1.2,0.5,1.9,0.5c0.5,0,0.8-0.1,1.2-0.4c0.3-0.2,0.5-0.6,0.5-1c0-0.5-0.2-0.8-0.5-1.1
		c-0.4-0.3-0.8-0.5-1.2-0.7c-0.2-0.1-0.4-0.2-0.6-0.4c-0.2-0.1-0.4-0.3-0.6-0.4c-0.2-0.2-0.3-0.4-0.4-0.6c-0.1-0.2-0.2-0.4-0.2-0.7
		c0-0.8,0.3-1.3,0.8-1.7c0.5-0.3,1-0.5,1.7-0.5c0.2,0,0.5,0,0.8,0.1c0.3,0.1,0.7,0.2,1,0.3L49.2,53c-0.5-0.2-1.1-0.4-1.7-0.4
		c-0.5,0-0.9,0.1-1.1,0.3c-0.1,0.1-0.3,0.2-0.3,0.4C46,53.5,46,53.7,46,53.9c0,0.2,0.1,0.3,0.2,0.5c0.1,0.1,0.2,0.3,0.4,0.4
		c0.2,0.1,0.4,0.2,0.6,0.3c0.2,0.1,0.4,0.2,0.7,0.3c0.5,0.2,0.9,0.5,1.3,0.9s0.5,0.9,0.6,1.5c0,0.4-0.1,0.8-0.2,1
		c-0.2,0.3-0.4,0.5-0.6,0.7c-0.5,0.3-1.1,0.5-1.7,0.5c-0.7,0-1.4-0.1-2.1-0.4L45.1,58.7z"/>
	<path class="st12" d="M56.3,53c-0.5-0.3-1.1-0.4-1.6-0.4c-0.9,0-1.6,0.3-2.1,0.9c-0.5,0.6-0.7,1.4-0.7,2.4c0,0.9,0.2,1.7,0.7,2.3
		c0.5,0.6,1.1,1,2,1c0.6,0,1.1-0.1,1.7-0.4l0.1,0.9c-0.6,0.2-1.2,0.3-1.9,0.3c-1.2,0-2.1-0.4-2.7-1.2c-0.6-0.8-0.9-1.7-0.9-2.9
		c0-1.2,0.3-2.2,1-3c0.7-0.7,1.5-1.1,2.7-1.1c0.5,0,0.8,0,1.1,0.1c0.2,0,0.3,0.1,0.4,0.1c0.1,0,0.2,0.1,0.2,0.1L56.3,53z"/>
</g>
<path class="st1" d="M58,59.8h0.9V52H58V59.8z M58,49.9h0.9v-1.3H58V49.9z"/>
<g>
	<defs>
		<rect id="SVGID_25_" width="299.8" height="60"/>
	</defs>
	<clipPath id="SVGID_26_">
		<use xlink:href="#SVGID_25_"  style="overflow:visible;"/>
	</clipPath>
	<path class="st13" d="M65.9,55.4c0-0.7-0.1-1.3-0.4-1.9c-0.3-0.5-0.8-0.8-1.5-0.8c-0.7,0-1.2,0.3-1.6,0.9c-0.4,0.6-0.6,1.2-0.6,1.9
		H65.9z M66.3,59.6c-0.7,0.3-1.4,0.4-2.2,0.4c-1.2,0-2.1-0.4-2.6-1.2c-0.5-0.7-0.8-1.7-0.8-2.9c0-1.2,0.3-2.2,0.9-3
		c0.6-0.7,1.3-1.1,2.3-1.1c1,0,1.8,0.4,2.3,1.2c0.5,0.7,0.7,1.6,0.7,2.7v0.5h-5.1c0,0.9,0.2,1.6,0.6,2.1c0.4,0.6,1,0.9,1.8,0.9
		c0.4,0,0.7-0.1,1.1-0.2c0.4-0.1,0.7-0.2,0.9-0.4V59.6z"/>
	<path class="st13" d="M68.8,53.8c0-0.6,0-1.2-0.1-1.8h0.9v1.4h0c0.1-0.2,0.2-0.4,0.3-0.6c0.1-0.2,0.3-0.4,0.4-0.5
		c0.2-0.2,0.4-0.3,0.7-0.4c0.3-0.1,0.6-0.1,1-0.1c0.9,0,1.6,0.3,2,0.9c0.4,0.5,0.6,1.3,0.6,2.1v5h-0.9v-4.8c0-0.7-0.1-1.3-0.4-1.8
		c-0.3-0.4-0.7-0.6-1.4-0.6c-0.8,0-1.4,0.3-1.7,0.9c-0.2,0.3-0.3,0.6-0.4,0.9c-0.1,0.3-0.1,0.7-0.1,1v4.3h-0.9V53.8z"/>
	<path class="st13" d="M81.8,53c-0.5-0.3-1.1-0.4-1.6-0.4c-0.9,0-1.6,0.3-2.1,0.9c-0.5,0.6-0.7,1.4-0.7,2.4c0,0.9,0.2,1.7,0.7,2.3
		c0.5,0.6,1.1,1,2,1c0.6,0,1.1-0.1,1.7-0.4l0.1,0.9C81.3,59.9,80.7,60,80,60c-1.2,0-2.1-0.4-2.7-1.2c-0.6-0.8-0.9-1.7-0.9-2.9
		c0-1.2,0.3-2.2,1-3c0.7-0.7,1.6-1.1,2.7-1.1c0.5,0,0.8,0,1.1,0.1c0.2,0,0.3,0.1,0.4,0.1c0.1,0,0.2,0.1,0.3,0.1L81.8,53z"/>
	<path class="st13" d="M88,55.4c0-0.7-0.1-1.3-0.4-1.9c-0.3-0.5-0.8-0.8-1.5-0.8c-0.7,0-1.2,0.3-1.6,0.9c-0.4,0.6-0.6,1.2-0.6,1.9
		H88z M88.4,59.6C87.7,59.8,87,60,86.3,60c-1.2,0-2.1-0.4-2.6-1.2c-0.5-0.7-0.8-1.7-0.8-2.9c0-1.2,0.3-2.2,0.9-3
		c0.6-0.7,1.3-1.1,2.3-1.1c1,0,1.8,0.4,2.3,1.2c0.5,0.7,0.7,1.6,0.7,2.7v0.5h-5.1c0,0.9,0.2,1.6,0.6,2.1c0.4,0.6,1,0.9,1.8,0.9
		c0.4,0,0.7-0.1,1.1-0.2c0.4-0.1,0.7-0.2,0.9-0.4V59.6z"/>
</g>
</svg>
